<svg width="40" height="40" viewBox="0 0 40 40" fill="none" xmlns="http://www.w3.org/2000/svg">
<g id="quote icon">
<g id="Path">
<path fill-rule="evenodd" clip-rule="evenodd" d="M25 20.002H33.3333C34.2533 20.002 35 20.7486 35 21.6686V28.3353C35 29.2553 34.2533 30.002 33.3333 30.002H26.6667C25.7467 30.002 25 29.2553 25 28.3353V20.002Z" fill="#3F4B53"/>
<path d="M25 20.002H33.3333C34.2533 20.002 35 20.7486 35 21.6686V28.3353C35 29.2553 34.2533 30.002 33.3333 30.002H26.6667C25.7467 30.002 25 29.2553 25 28.3353V20.002" stroke="#3F4B53" stroke-width="5" stroke-linecap="round" stroke-linejoin="round"/>
</g>
<path id="Path_2" d="M25 20.002C25 13.3353 26.25 12.2253 30 10.002" stroke="#3F4B53" stroke-width="5" stroke-linecap="round" stroke-linejoin="round"/>
<g id="Path_3">
<path fill-rule="evenodd" clip-rule="evenodd" d="M6.6875 20.002H15.0208C15.9408 20.002 16.6875 20.7486 16.6875 21.6686V28.3353C16.6875 29.2553 15.9408 30.002 15.0208 30.002H8.35417C7.43417 30.002 6.6875 29.2553 6.6875 28.3353V20.002Z" fill="#3F4B53"/>
<path d="M6.6875 20.002H15.0208C15.9408 20.002 16.6875 20.7486 16.6875 21.6686V28.3353C16.6875 29.2553 15.9408 30.002 15.0208 30.002H8.35417C7.43417 30.002 6.6875 29.2553 6.6875 28.3353V20.002" stroke="#3F4B53" stroke-width="5" stroke-linecap="round" stroke-linejoin="round"/>
</g>
<path id="Path_4" d="M6.6875 20.002C6.6875 13.3353 7.9375 12.2253 11.6875 10.002" stroke="#3F4B53" stroke-width="5" stroke-linecap="round" stroke-linejoin="round"/>
</g>
</svg>
